<?xml version="1.0" encoding="UTF-8" standalone="no"?>
<svg width="24px" height="24px" viewBox="0 0 24 24" version="1.1" xmlns="http://www.w3.org/2000/svg" xmlns:xlink="http://www.w3.org/1999/xlink" xmlns:sketch="http://www.bohemiancoding.com/sketch/ns">
    <!-- Generator: bin/sketchtool 1.4 (305) - http://www.bohemiancoding.com/sketch -->
    <title>ic_pdf</title>
    <desc>Created with bin/sketchtool.</desc>
    <defs></defs>
    <g id="Page-1" stroke="none" stroke-width="1" fill="none" fill-rule="evenodd" sketch:type="MSPage">
        <g id="Desktop-HD" sketch:type="MSArtboardGroup" transform="translate(-1162.000000, -36.000000)">
            <g id="pdf" sketch:type="MSLayerGroup" transform="translate(1162.000000, 36.000000)">
                <g id="Group" sketch:type="MSShapeGroup">
                    <path d="M0,0 L24,0 L24,24 L0,24 L0,0 Z" id="Shape-Copy"></path>
                    <g id="1437595805_icon-5-file-pdf" transform="translate(0.000000, 5.000000)" fill="#297AEA">
                        <g id="Page-1">
                            <g id="icon-5-file-pdf">
                                <path d="M3.00684834,0 C1.34621185,0 0,1.3422643 0,2.9987856 L0,10.0012144 C0,11.6573979 1.33599155,13 3.00684834,13 L19.9931517,13 C21.6537881,13 23,11.6577357 23,10.0012144 L23,2.9987856 C23,1.3426021 21.6640085,0 19.9931517,0 L3.00684834,0 L3.00684834,0 Z M16,6 L16,4 L20,4 L20,3 L15,3 L15,10 L16,10 L16,7 L19,7 L19,6 L16,6 L16,6 Z M3,5 L3,10 L4,10 L4,7 L5.9951185,7 C7.102384,7 8,6.1122704 8,5 C8,3.8954305 7.1061002,3 5.9951185,3 L3,3 L3,5 L3,5 Z M4,4 L4,6 L6.0010434,6 C6.5527519,6 7,5.5561352 7,5 C7,4.4477153 6.5573397,4 6.0010434,4 L4,4 L4,4 Z M9,3 L9,10 L11.9951185,10 C13.102384,10 14,9.1134452 14,7.9940809 L14,5.0059191 C14,3.8980806 13.1061002,3 11.9951185,3 L9,3 L9,3 Z M10,4 L10,9 L12.0010434,9 C12.5527519,9 13,8.5562834 13,8.0001925 L13,4.9998075 C13,4.4476291 12.5573397,4 12.0010434,4 L10,4 L10,4 Z" id="file-pdf"></path>
                            </g>
                        </g>
                    </g>                    
                </g>
            </g>
        </g>
    </g>
</svg>
