<?xml version="1.0" encoding="UTF-8" standalone="no"?>
<svg width="24px" height="24px" viewBox="0 0 24 24" version="1.1" xmlns="http://www.w3.org/2000/svg" xmlns:xlink="http://www.w3.org/1999/xlink" xmlns:sketch="http://www.bohemiancoding.com/sketch/ns">
    <!-- Generator: Sketch 3.3.3 (12072) - http://www.bohemiancoding.com/sketch -->
    <title>ic_about</title>
    <desc>Created with Sketch.</desc>
    <defs></defs>
    <g id="Page-1" stroke="none" stroke-width="1" fill="none" fill-rule="evenodd" sketch:type="MSPage">
        <g id="Desktop-HD" sketch:type="MSArtboardGroup" transform="translate(-1301.000000, -35.000000)" fill="#297AEA">
            <g id="about" sketch:type="MSLayerGroup" transform="translate(1301.000000, 35.000000)">
                <g id="Group" sketch:type="MSShapeGroup">
                    <path d="M11.9745234,19.9811841 C7.57855348,19.9811841 4.01455794,16.4169826 4.01455794,12.02115 C4.01455794,7.62483672 7.57855348,4.06118455 11.9745234,4.06118455 C16.3709053,4.06118455 19.9345575,7.62490539 19.9345575,12.02115 C19.9345575,16.4169826 16.3709053,19.9811841 11.9745234,19.9811841 Z M13.7238798,16.1449614 L10.3559142,16.1449614 L10.3559142,15.7560858 C10.448412,15.7492189 10.5387811,15.7398798 10.6279828,15.7293734 C10.7163605,15.7183863 10.792927,15.7010129 10.8565837,15.6759485 C10.9709185,15.6338541 11.0505064,15.5718455 11.0972704,15.4919828 C11.1430043,15.4121202 11.1666953,15.3066438 11.1666953,15.1750043 L11.1666953,12.0730644 C11.1666953,11.9488412 11.1380601,11.8400687 11.0816137,11.7458541 C11.024618,11.6510901 10.9532704,11.5753476 10.8681888,11.5189013 C10.8046009,11.4764635 10.7070901,11.4354678 10.5779227,11.3960515 C10.4484807,11.3572532 10.3300944,11.3327382 10.2237253,11.3216824 L10.2237253,10.9330815 L12.8351588,10.7945064 L12.9150215,10.8740944 L12.9150215,15.1055107 C12.9150215,15.2300086 12.9420086,15.3352103 12.9945408,15.4224893 C13.0482403,15.5095622 13.1243262,15.5739742 13.2239657,15.6171674 C13.2950386,15.6491674 13.3738712,15.6780773 13.4583348,15.7022489 C13.5440343,15.7273133 13.632412,15.7446867 13.7249785,15.7556738 L13.7249785,16.144824 L13.7238798,16.144824 L13.7238798,16.1449614 Z M11.1523433,8.18348498 C11.3597253,7.99182833 11.6081717,7.89624034 11.8959657,7.89624034 C12.1840343,7.89624034 12.4305579,7.99182833 12.6371159,8.18348498 C12.8428498,8.37603433 12.9458541,8.60655794 12.9458541,8.87642918 C12.9458541,9.1463691 12.8416824,9.37627468 12.6340944,9.56662661 C12.4266438,9.75670386 12.1807382,9.85167382 11.8959657,9.85167382 C11.608721,9.85167382 11.3602747,9.75697854 11.1523433,9.56662661 C10.9446867,9.37634335 10.8408584,9.1463691 10.8408584,8.87642918 C10.8408584,8.60655794 10.9446867,8.37603433 11.1523433,8.18348498 Z" id="Shape"></path>
                </g>
            </g>
        </g>
    </g>
</svg>