<?xml version="1.0" encoding="UTF-8" standalone="no"?>
<svg width="24px" height="24px" viewBox="0 0 24 24" version="1.1" xmlns="http://www.w3.org/2000/svg" xmlns:xlink="http://www.w3.org/1999/xlink" xmlns:sketch="http://www.bohemiancoding.com/sketch/ns">
    <!-- Generator: bin/sketchtool 1.4 (305) - http://www.bohemiancoding.com/sketch -->
    <title>ic_git</title>
    <desc>Created with bin/sketchtool.</desc>
    <defs></defs>
    <g id="Page-1" stroke="none" stroke-width="1" fill="none" fill-rule="evenodd" sketch:type="MSPage">
        <g id="Desktop-HD" sketch:type="MSArtboardGroup" transform="translate(-444.000000, -224.000000)">
            <g id="Rectangle-3-Copy-2-+-Código-fonte-desta-p-+-1437595436_github_rounded" sketch:type="MSLayerGroup" transform="translate(440.000000, 224.000000)">
                <g id="git" transform="translate(4.000000, 0.000000)" sketch:type="MSShapeGroup">
                    <g id="Group">
                        <path d="M12.108864,4.293216 C7.756544,4.293216 4.227264,7.82176 4.227264,12.174784 C4.227264,15.657056 6.4856,18.611392 9.617184,19.6536 C10.01104,19.726528 10.155712,19.48256 10.155712,19.274432 C10.155712,19.086592 10.148448,18.4656 10.145024,17.807008 C7.952352,18.28384 7.489696,16.877088 7.489696,16.877088 C7.131136,15.966144 6.614592,15.72384 6.614592,15.72384 C5.899424,15.234656 6.668512,15.244736 6.668512,15.244736 C7.459872,15.30032 7.876672,16.057056 7.876672,16.057056 C8.579616,17.261888 9.720448,16.913536 10.170272,16.71216 C10.241024,16.202816 10.445184,15.855008 10.670656,15.658208 C8.920032,15.458976 7.07968,14.783104 7.07968,11.763104 C7.07968,10.902688 7.387616,10.199552 7.89184,9.647584 C7.810016,9.448992 7.540192,8.647424 7.968192,7.561728 C7.968192,7.561728 8.63008,7.350016 10.136096,8.369728 C10.764832,8.195072 11.439104,8.107488 12.108896,8.104448 C12.778656,8.107488 13.45344,8.195072 14.083296,8.369728 C15.58768,7.350016 16.248576,7.561728 16.248576,7.561728 C16.677568,8.647424 16.407744,9.448992 16.32592,9.647584 C16.831296,10.199552 17.137056,10.902656 17.137056,11.763104 C17.137056,14.790368 15.29328,15.4568 13.538176,15.651968 C13.820864,15.896576 14.072704,16.376192 14.072704,17.111488 C14.072704,18.166048 14.06368,19.014816 14.06368,19.274432 C14.06368,19.484224 14.205504,19.729984 14.60496,19.652608 C17.734944,18.609248 19.990432,15.655936 19.990432,12.174784 C19.990432,7.82176 16.461632,4.293216 12.108864,4.293216 L12.108864,4.293216 Z" id="Shape" fill="#297AEA"></path>                                  </g>
                </g>
            </g>
        </g>
    </g>
</svg>
